<svg xmlns="http://www.w3.org/2000/svg" xmlns:xlink="http://www.w3.org/1999/xlink" xmlns:lucid="lucid" width="1044" height="516"><g transform="translate(-656 223)" lucid:page-tab-id="lLYQNlNRv-Ew"><path d="M500-500h1500V500H500z" fill="#fff"/><path d="M800-200h220v80H800z" stroke="#000" stroke-width="2" fill="#fff"/><use xlink:href="#a" transform="matrix(1,0,0,1,812,-188) translate(11.333333333333329 21.27777777777778)"/><use xlink:href="#b" transform="matrix(1,0,0,1,812,-188) translate(71.33333333333333 45.5)"/><path d="M1340-200h220v80h-220z" stroke="#000" stroke-width="2" fill="#fff"/><use xlink:href="#c" transform="matrix(1,0,0,1,1352,-188) translate(11.333333333333329 21.27777777777778)"/><use xlink:href="#d" transform="matrix(1,0,0,1,1352,-188) translate(24.66666666666667 45.5)"/><path d="M1340-20h220v80h-220z" stroke="#000" stroke-width="2" fill="#fff"/><use xlink:href="#e" transform="matrix(1,0,0,1,1352,-7.999999999999993) translate(-2.000000000000014 33.66666666666667)"/><path d="M800-20h220v80H800z" stroke="#000" stroke-width="2" fill="#fff"/><use xlink:href="#f" transform="matrix(1,0,0,1,812,-8) translate(18 35.27777777777778)"/><path d="M680 140h220v80H680z" stroke="#000" stroke-width="2" fill="#fff"/><use xlink:href="#g" transform="matrix(1,0,0,1,692,152) translate(31.333333333333343 35.27777777777778)"/><path d="M920 140h220v80H920z" stroke="#000" stroke-width="2" fill="#fff"/><use xlink:href="#h" transform="matrix(1,0,0,1,932,152) translate(31.333333333333343 35.27777777777778)"/><path d="M1220 140h220v80h-220z" stroke="#000" stroke-width="2" fill="#fff"/><use xlink:href="#i" transform="matrix(1,0,0,1,1232,152) translate(11.333333333333329 35.27777777777778)"/><path d="M1460 140h220v80h-220z" stroke="#000" stroke-width="2" fill="#fff"/><use xlink:href="#j" transform="matrix(1,0,0,1,1472,152) translate(11.333333333333329 35.27777777777778)"/><path d="M1051.75-160h256.5" stroke="#000" stroke-width="2" fill="none"/><path d="M1022.4-160l14.86-14.85L1052.4-160l-15.14 14.85zM1337.6-160l-14.86 14.85L1307.6-160l15.14-14.85z" stroke="#000" stroke-width="2" fill="#fff"/><path d="M910-22v-72.52" stroke="#000" stroke-width="2" fill="none"/><path d="M910.98-21H909v-1.03H911z" stroke="#000" stroke-width=".05"/><path d="M910-117.04l12.73 21.52h-25.46z" stroke="#000" stroke-width="2" fill="#fff"/><path d="M1450-22v-72.52" stroke="#000" stroke-width="2" fill="none"/><path d="M1450.97-21h-1.94v-1.03h1.94z" stroke="#000" stroke-width=".05"/><path d="M1450-117.04l12.73 21.52h-25.46z" stroke="#000" stroke-width="2" fill="#fff"/><path d="M821.35 138.2l43.2-57.6" stroke="#000" stroke-width="2" fill="none"/><path d="M822.14 138.76l-.17.24h-2.44l1.06-1.4z" stroke="#000" stroke-width=".05"/><path d="M878.07 62.57l-2.73 24.85-20.36-15.27z" stroke="#000" stroke-width="2" fill="#fff"/><path d="M998.65 138.2l-43.2-57.6" stroke="#000" stroke-width="2" fill="none"/><path d="M1000.47 139h-2.44l-.17-.24 1.55-1.17z" stroke="#000" stroke-width=".05"/><path d="M941.93 62.57l23.1 9.58-20.37 15.27z" stroke="#000" stroke-width="2" fill="#fff"/><path d="M1361.35 138.2l43.2-57.6" stroke="#000" stroke-width="2" fill="none"/><path d="M1362.14 138.76l-.17.24h-2.44l1.06-1.4z" stroke="#000" stroke-width=".05"/><path d="M1418.07 62.57l-2.73 24.85-20.36-15.27z" stroke="#000" stroke-width="2" fill="#fff"/><path d="M1538.65 138.2l-43.2-57.6" stroke="#000" stroke-width="2" fill="none"/><path d="M1540.47 139h-2.44l-.17-.24 1.56-1.17z" stroke="#000" stroke-width=".05"/><path d="M1481.93 62.57l23.1 9.58-20.37 15.27z" stroke="#000" stroke-width="2" fill="#fff"/><path d="M1218 180h-3.76m-7.52 0h-7.52m-7.5 0h-7.53m-7.52 0h-7.52m-7.52 0h-7.5m-7.52 0h-3.76" stroke="#000" stroke-width="2" fill="none"/><path d="M1219 180.97h-1.03v-1.94h1.03z" stroke="#000" stroke-width=".05"/><path d="M1160.18 169.82L1142.96 180l17.22 10.18M1570 222v4.13m0 8.25v8.25m0 8.25V255l-.07.94-.22.9-.35.88-.5.8-.6.72-.72.6-.8.5-.88.37-.9.23-.95.07h-4m-8 0h-8m-8 0h-8m-8 0h-8m-8 0h-8m-8 0h-8m-8 0h-8m-8 0h-8m-8 0h-8m-8 0h-8m-8 0h-8m-8 0h-8m-8 0h-8m-8 0h-8m-8 0h-8m-8 0h-8m-8 0h-8m-8 0h-8m-8 0h-8m-8 0h-8m-8 0h-8m-8 0h-8m-8 0h-8m-8 0h-8m-8 0h-8m-8 0h-8m-8 0h-8m-8 0h-8m-8 0h-8m-8 0h-8m-8 0h-8m-8 0h-8m-8 0h-8m-8 0h-8m-8 0h-8m-8 0h-8m-8 0h-8m-8 0h-8m-8 0h-8m-8 0h-8m-8 0h-8m-8 0h-8m-8 0h-8m-8 0h-8m-8 0h-8m-8 0h-8m-8 0h-8m-8 0h-8m-8 0h-4l-.94-.07-.9-.22-.88-.35-.8-.5-.72-.6-.6-.72-.5-.8-.37-.88-.23-.9-.07-.95v-4.02m0-8.05v-8.04m0-8.06v-4.02" stroke="#000" stroke-width="2" fill="none"/><path d="M1570.97 222.03h-1.94V221h1.94z" stroke="#000" stroke-width=".05"/><path d="M800.18 240.18L790 222.96l-10.18 17.22" stroke="#000" stroke-width="2" fill="none"/><defs><path fill="#3a414a" d="M509-84c29 11 1 54-20 35L72-281c144-79 285-160 430-237 18 1 28 28 7 40L154-281" id="k"/><path fill="#3a414a" d="M279 0v-376H161c-18 0-27-7-27-21 0-13 9-20 27-20h159V0h-41zm39-624v104h-59v-104h59" id="l"/><path fill="#3a414a" d="M319-390c-84 8-101 30-152 96V0h-41v-417h41v69c58-64 94-83 156-83 89 0 157 59 157 136V0h-41v-288c-1-57-52-108-120-102" id="m"/><path fill="#3a414a" d="M186-417h220c18 0 27 7 27 20 0 14-9 21-27 21H186v267C185 8 396-17 464-65c17-12 35-3 35 14 0 29-114 67-199 67-94 0-155-48-155-123v-269c-34-5-102 14-102-21 0-34 69-15 102-20v-119c0-18 7-27 21-27s20 8 20 27v119" id="n"/><path fill="#3a414a" d="M520-199H104C118-94 198-25 306-25c62 0 136-21 175-54 15-13 35-6 35 13 0 35-120 82-211 82C170 16 63-87 63-217c0-121 100-214 228-214 126 0 231 85 229 232zm-416-41h374c-16-91-90-150-187-150s-169 58-187 150" id="o"/><path fill="#3a414a" d="M441-427c35 0 92 33 100 62 1 19-23 28-37 13-22-25-44-34-66-34-45 0-80 23-190 124V0h-41v-417h41v102c93-84 142-112 193-112" id="p"/><path fill="#3a414a" d="M520-551c-10-1-115-12-138-12-66 0-111 35-111 85v61h189c18 0 27 7 27 20 0 14-9 21-27 21H271V0h-41v-376h-88c-18 0-27-7-27-21 0-13 9-20 27-20h88v-61c0-73 64-126 154-126 38 0 107 8 139 13 26 4 22 41-3 40" id="q"/><path fill="#3a414a" d="M296-390c-34 0-77 11-152 32-23-1-25-34-2-41 56-16 120-32 157-32 93 0 161 52 161 123V0h-41v-67c-61 57-121 83-191 83-93 0-156-52-156-128 0-87 86-146 211-146 46 0 77 5 136 21v-71c0-49-50-82-123-82zm123 278v-90c-36-9-84-15-128-15-106 0-178 43-178 106 0 52 45 86 114 86 71 0 125-24 192-87" id="r"/><path fill="#3a414a" d="M511-298c0 18-7 27-20 27s-19-7-21-24c-4-53-75-95-159-95-110 0-186 75-186 185 0 105 77 180 186 180 73 0 135-24 187-72 12-18 37-10 37 9 0 12-15 30-43 49-51 35-117 55-183 55C178 16 84-76 84-204c0-132 96-227 230-227 61 0 197 22 197 133" id="s"/><path fill="#3a414a" d="M91-478c-29-11-2-54 20-35l417 232C384-202 243-121 98-44c-19-1-28-28-7-40l355-197" id="t"/><g id="a"><use transform="matrix(0.022222222222222223,0,0,0.022222222222222223,0,0)" xlink:href="#k"/><use transform="matrix(0.022222222222222223,0,0,0.022222222222222223,13.333333333333334,0)" xlink:href="#k"/><use transform="matrix(0.022222222222222223,0,0,0.022222222222222223,26.666666666666668,0)" xlink:href="#l"/><use transform="matrix(0.022222222222222223,0,0,0.022222222222222223,40,0)" xlink:href="#m"/><use transform="matrix(0.022222222222222223,0,0,0.022222222222222223,53.333333333333336,0)" xlink:href="#n"/><use transform="matrix(0.022222222222222223,0,0,0.022222222222222223,66.66666666666667,0)" xlink:href="#o"/><use transform="matrix(0.022222222222222223,0,0,0.022222222222222223,80,0)" xlink:href="#p"/><use transform="matrix(0.022222222222222223,0,0,0.022222222222222223,93.33333333333334,0)" xlink:href="#q"/><use transform="matrix(0.022222222222222223,0,0,0.022222222222222223,106.66666666666666,0)" xlink:href="#r"/><use transform="matrix(0.022222222222222223,0,0,0.022222222222222223,119.99999999999999,0)" xlink:href="#s"/><use transform="matrix(0.022222222222222223,0,0,0.022222222222222223,133.33333333333331,0)" xlink:href="#o"/><use transform="matrix(0.022222222222222223,0,0,0.022222222222222223,146.66666666666666,0)" xlink:href="#t"/><use transform="matrix(0.022222222222222223,0,0,0.022222222222222223,160,0)" xlink:href="#t"/></g><path fill="#3a414a" d="M63-325c0-128 108-251 242-251 66 0 188 31 214 152 0 18-7 27-21 27-12 0-19-8-20-24-4-61-84-114-173-114-111 0-201 97-201 216v71c0 120 100 223 218 223 69 0 122-24 174-90 13-16 38-10 38 9 0 10-12 27-38 51-49 46-110 71-174 71C186 16 63-107 63-242v-83" id="u"/><path fill="#3a414a" d="M279 0v-563H162c-18 0-27-7-27-21 0-13 9-20 27-20h158V0h-41" id="v"/><g id="b"><use transform="matrix(0.022222222222222223,0,0,0.022222222222222223,0,0)" xlink:href="#u"/><use transform="matrix(0.022222222222222223,0,0,0.022222222222222223,13.333333333333334,0)" xlink:href="#o"/><use transform="matrix(0.022222222222222223,0,0,0.022222222222222223,26.666666666666668,0)" xlink:href="#v"/><use transform="matrix(0.022222222222222223,0,0,0.022222222222222223,40,0)" xlink:href="#v"/></g><g id="c"><use transform="matrix(0.022222222222222223,0,0,0.022222222222222223,0,0)" xlink:href="#k"/><use transform="matrix(0.022222222222222223,0,0,0.022222222222222223,13.333333333333334,0)" xlink:href="#k"/><use transform="matrix(0.022222222222222223,0,0,0.022222222222222223,26.666666666666668,0)" xlink:href="#l"/><use transform="matrix(0.022222222222222223,0,0,0.022222222222222223,40,0)" xlink:href="#m"/><use transform="matrix(0.022222222222222223,0,0,0.022222222222222223,53.333333333333336,0)" xlink:href="#n"/><use transform="matrix(0.022222222222222223,0,0,0.022222222222222223,66.66666666666667,0)" xlink:href="#o"/><use transform="matrix(0.022222222222222223,0,0,0.022222222222222223,80,0)" xlink:href="#p"/><use transform="matrix(0.022222222222222223,0,0,0.022222222222222223,93.33333333333334,0)" xlink:href="#q"/><use transform="matrix(0.022222222222222223,0,0,0.022222222222222223,106.66666666666666,0)" xlink:href="#r"/><use transform="matrix(0.022222222222222223,0,0,0.022222222222222223,119.99999999999999,0)" xlink:href="#s"/><use transform="matrix(0.022222222222222223,0,0,0.022222222222222223,133.33333333333331,0)" xlink:href="#o"/><use transform="matrix(0.022222222222222223,0,0,0.022222222222222223,146.66666666666666,0)" xlink:href="#t"/><use transform="matrix(0.022222222222222223,0,0,0.022222222222222223,160,0)" xlink:href="#t"/></g><path fill="#3a414a" d="M480-417V0h-41v-66c-55 54-116 82-182 82-80 0-133-52-133-131v-302h41v302c0 50 40 90 91 90 67 0 128-30 183-90v-302h41" id="w"/><path fill="#3a414a" d="M301 16c-106 0-198-49-198-128 0-15 7-25 21-25s20 12 20 29c0 46 69 83 154 83 126 0 206-89 110-155-40-27-213-28-238-59-103-76-18-192 125-192 92 0 178 48 178 114 0 14-7 23-20 24-12 0-19-7-21-23-5-45-57-74-133-74-100 0-175 68-98 120 22 14 28 16 116 25 100 10 180 41 180 129 0 76-83 132-196 132" id="x"/><g id="d"><use transform="matrix(0.022222222222222223,0,0,0.022222222222222223,0,0)" xlink:href="#u"/><use transform="matrix(0.022222222222222223,0,0,0.022222222222222223,13.333333333333334,0)" xlink:href="#o"/><use transform="matrix(0.022222222222222223,0,0,0.022222222222222223,26.666666666666668,0)" xlink:href="#v"/><use transform="matrix(0.022222222222222223,0,0,0.022222222222222223,40,0)" xlink:href="#v"/><use transform="matrix(0.022222222222222223,0,0,0.022222222222222223,53.333333333333336,0)" xlink:href="#u"/><use transform="matrix(0.022222222222222223,0,0,0.022222222222222223,66.66666666666667,0)" xlink:href="#v"/><use transform="matrix(0.022222222222222223,0,0,0.022222222222222223,80,0)" xlink:href="#w"/><use transform="matrix(0.022222222222222223,0,0,0.022222222222222223,93.33333333333334,0)" xlink:href="#x"/><use transform="matrix(0.022222222222222223,0,0,0.022222222222222223,106.66666666666666,0)" xlink:href="#n"/><use transform="matrix(0.022222222222222223,0,0,0.022222222222222223,119.99999999999999,0)" xlink:href="#o"/><use transform="matrix(0.022222222222222223,0,0,0.022222222222222223,133.33333333333331,0)" xlink:href="#p"/></g><path fill="#3a414a" d="M52 0l210-563h68L542 0h-43l-71-188H162L93 0H52zm361-229L301-522h-15L178-229h235" id="y"/><path fill="#3a414a" d="M144 0h-41v-604h41v276c50-71 106-103 180-103 122 0 217 97 217 221 0 125-97 226-217 226-73 0-133-34-180-104V0zm178-390c-99 0-178 81-178 182S223-25 322-25c97 0 178-82 178-180 0-104-78-185-178-185" id="z"/><g id="e"><use transform="matrix(0.022222222222222223,0,0,0.022222222222222223,0,0)" xlink:href="#y"/><use transform="matrix(0.022222222222222223,0,0,0.022222222222222223,13.333333333333334,0)" xlink:href="#z"/><use transform="matrix(0.022222222222222223,0,0,0.022222222222222223,26.666666666666668,0)" xlink:href="#x"/><use transform="matrix(0.022222222222222223,0,0,0.022222222222222223,40,0)" xlink:href="#n"/><use transform="matrix(0.022222222222222223,0,0,0.022222222222222223,53.333333333333336,0)" xlink:href="#p"/><use transform="matrix(0.022222222222222223,0,0,0.022222222222222223,66.66666666666667,0)" xlink:href="#r"/><use transform="matrix(0.022222222222222223,0,0,0.022222222222222223,80,0)" xlink:href="#s"/><use transform="matrix(0.022222222222222223,0,0,0.022222222222222223,93.33333333333334,0)" xlink:href="#n"/><use transform="matrix(0.022222222222222223,0,0,0.022222222222222223,106.66666666666666,0)" xlink:href="#u"/><use transform="matrix(0.022222222222222223,0,0,0.022222222222222223,119.99999999999999,0)" xlink:href="#v"/><use transform="matrix(0.022222222222222223,0,0,0.022222222222222223,133.33333333333331,0)" xlink:href="#w"/><use transform="matrix(0.022222222222222223,0,0,0.022222222222222223,146.66666666666666,0)" xlink:href="#x"/><use transform="matrix(0.022222222222222223,0,0,0.022222222222222223,160,0)" xlink:href="#n"/><use transform="matrix(0.022222222222222223,0,0,0.022222222222222223,173.33333333333334,0)" xlink:href="#o"/><use transform="matrix(0.022222222222222223,0,0,0.022222222222222223,186.66666666666669,0)" xlink:href="#p"/></g><g id="f"><use transform="matrix(0.022222222222222223,0,0,0.022222222222222223,0,0)" xlink:href="#y"/><use transform="matrix(0.022222222222222223,0,0,0.022222222222222223,13.333333333333334,0)" xlink:href="#z"/><use transform="matrix(0.022222222222222223,0,0,0.022222222222222223,26.666666666666668,0)" xlink:href="#x"/><use transform="matrix(0.022222222222222223,0,0,0.022222222222222223,40,0)" xlink:href="#n"/><use transform="matrix(0.022222222222222223,0,0,0.022222222222222223,53.333333333333336,0)" xlink:href="#p"/><use transform="matrix(0.022222222222222223,0,0,0.022222222222222223,66.66666666666667,0)" xlink:href="#r"/><use transform="matrix(0.022222222222222223,0,0,0.022222222222222223,80,0)" xlink:href="#s"/><use transform="matrix(0.022222222222222223,0,0,0.022222222222222223,93.33333333333334,0)" xlink:href="#n"/><use transform="matrix(0.022222222222222223,0,0,0.022222222222222223,106.66666666666666,0)" xlink:href="#u"/><use transform="matrix(0.022222222222222223,0,0,0.022222222222222223,119.99999999999999,0)" xlink:href="#o"/><use transform="matrix(0.022222222222222223,0,0,0.022222222222222223,133.33333333333331,0)" xlink:href="#v"/><use transform="matrix(0.022222222222222223,0,0,0.022222222222222223,146.66666666666666,0)" xlink:href="#v"/></g><path fill="#3a414a" d="M541-41V0H186v-563h41v522h314" id="A"/><g id="g"><use transform="matrix(0.022222222222222223,0,0,0.022222222222222223,0,0)" xlink:href="#A"/><use transform="matrix(0.022222222222222223,0,0,0.022222222222222223,13.333333333333334,0)" xlink:href="#o"/><use transform="matrix(0.022222222222222223,0,0,0.022222222222222223,26.666666666666668,0)" xlink:href="#n"/><use transform="matrix(0.022222222222222223,0,0,0.022222222222222223,40,0)" xlink:href="#n"/><use transform="matrix(0.022222222222222223,0,0,0.022222222222222223,53.333333333333336,0)" xlink:href="#o"/><use transform="matrix(0.022222222222222223,0,0,0.022222222222222223,66.66666666666667,0)" xlink:href="#p"/><use transform="matrix(0.022222222222222223,0,0,0.022222222222222223,80,0)" xlink:href="#u"/><use transform="matrix(0.022222222222222223,0,0,0.022222222222222223,93.33333333333334,0)" xlink:href="#o"/><use transform="matrix(0.022222222222222223,0,0,0.022222222222222223,106.66666666666666,0)" xlink:href="#v"/><use transform="matrix(0.022222222222222223,0,0,0.022222222222222223,119.99999999999999,0)" xlink:href="#v"/></g><path fill="#3a414a" d="M92-139c0-18 7-27 21-27 13 0 19 8 20 24 3 66 77 117 168 117 93 0 163-54 163-128 0-35-17-66-45-84-24-15-45-22-116-34-70-12-106-24-136-46-33-23-52-62-52-104 0-88 79-155 184-155 129 0 187 92 187 143 0 18-7 27-20 27s-20-8-21-24c-4-60-65-105-143-105-120 0-193 124-104 191 25 19 51 25 113 35 77 13 105 21 135 40 39 24 62 67 62 118 0 97-86 167-206 167C190 16 92-63 92-139" id="B"/><path fill="#3a414a" d="M528-417L232 186h-41L282 0 74-417h47L305-45l181-372h42" id="C"/><path fill="#3a414a" d="M532 0h-40v-319c0-38-31-71-66-71-36 0-66 24-104 82V0h-40v-316c0-39-31-74-65-74-35 0-67 25-105 82V0H72v-417h40v52c54-90 159-90 202 5 39-50 72-71 113-71 58 0 105 49 105 108V0" id="D"/><path fill="#3a414a" d="M300-431c128 0 228 99 228 226C528-83 426 16 300 16 173 16 72-83 72-208c0-123 101-223 228-223zm0 41c-104 0-187 81-187 182 0 102 83 183 187 183 103 0 187-81 187-180 0-105-82-185-187-185" id="E"/><g id="h"><use transform="matrix(0.022222222222222223,0,0,0.022222222222222223,0,0)" xlink:href="#B"/><use transform="matrix(0.022222222222222223,0,0,0.022222222222222223,13.333333333333334,0)" xlink:href="#C"/><use transform="matrix(0.022222222222222223,0,0,0.022222222222222223,26.666666666666668,0)" xlink:href="#D"/><use transform="matrix(0.022222222222222223,0,0,0.022222222222222223,40,0)" xlink:href="#z"/><use transform="matrix(0.022222222222222223,0,0,0.022222222222222223,53.333333333333336,0)" xlink:href="#E"/><use transform="matrix(0.022222222222222223,0,0,0.022222222222222223,66.66666666666667,0)" xlink:href="#v"/><use transform="matrix(0.022222222222222223,0,0,0.022222222222222223,80,0)" xlink:href="#u"/><use transform="matrix(0.022222222222222223,0,0,0.022222222222222223,93.33333333333334,0)" xlink:href="#o"/><use transform="matrix(0.022222222222222223,0,0,0.022222222222222223,106.66666666666666,0)" xlink:href="#v"/><use transform="matrix(0.022222222222222223,0,0,0.022222222222222223,119.99999999999999,0)" xlink:href="#v"/></g><g id="i"><use transform="matrix(0.022222222222222223,0,0,0.022222222222222223,0,0)" xlink:href="#B"/><use transform="matrix(0.022222222222222223,0,0,0.022222222222222223,13.333333333333334,0)" xlink:href="#C"/><use transform="matrix(0.022222222222222223,0,0,0.022222222222222223,26.666666666666668,0)" xlink:href="#D"/><use transform="matrix(0.022222222222222223,0,0,0.022222222222222223,40,0)" xlink:href="#z"/><use transform="matrix(0.022222222222222223,0,0,0.022222222222222223,53.333333333333336,0)" xlink:href="#E"/><use transform="matrix(0.022222222222222223,0,0,0.022222222222222223,66.66666666666667,0)" xlink:href="#v"/><use transform="matrix(0.022222222222222223,0,0,0.022222222222222223,80,0)" xlink:href="#u"/><use transform="matrix(0.022222222222222223,0,0,0.022222222222222223,93.33333333333334,0)" xlink:href="#v"/><use transform="matrix(0.022222222222222223,0,0,0.022222222222222223,106.66666666666666,0)" xlink:href="#w"/><use transform="matrix(0.022222222222222223,0,0,0.022222222222222223,119.99999999999999,0)" xlink:href="#x"/><use transform="matrix(0.022222222222222223,0,0,0.022222222222222223,133.33333333333331,0)" xlink:href="#n"/><use transform="matrix(0.022222222222222223,0,0,0.022222222222222223,146.66666666666666,0)" xlink:href="#o"/><use transform="matrix(0.022222222222222223,0,0,0.022222222222222223,160,0)" xlink:href="#p"/></g><g id="j"><use transform="matrix(0.022222222222222223,0,0,0.022222222222222223,0,0)" xlink:href="#A"/><use transform="matrix(0.022222222222222223,0,0,0.022222222222222223,13.333333333333334,0)" xlink:href="#o"/><use transform="matrix(0.022222222222222223,0,0,0.022222222222222223,26.666666666666668,0)" xlink:href="#n"/><use transform="matrix(0.022222222222222223,0,0,0.022222222222222223,40,0)" xlink:href="#n"/><use transform="matrix(0.022222222222222223,0,0,0.022222222222222223,53.333333333333336,0)" xlink:href="#o"/><use transform="matrix(0.022222222222222223,0,0,0.022222222222222223,66.66666666666667,0)" xlink:href="#p"/><use transform="matrix(0.022222222222222223,0,0,0.022222222222222223,80,0)" xlink:href="#u"/><use transform="matrix(0.022222222222222223,0,0,0.022222222222222223,93.33333333333334,0)" xlink:href="#v"/><use transform="matrix(0.022222222222222223,0,0,0.022222222222222223,106.66666666666666,0)" xlink:href="#w"/><use transform="matrix(0.022222222222222223,0,0,0.022222222222222223,119.99999999999999,0)" xlink:href="#x"/><use transform="matrix(0.022222222222222223,0,0,0.022222222222222223,133.33333333333331,0)" xlink:href="#n"/><use transform="matrix(0.022222222222222223,0,0,0.022222222222222223,146.66666666666666,0)" xlink:href="#o"/><use transform="matrix(0.022222222222222223,0,0,0.022222222222222223,160,0)" xlink:href="#p"/></g></defs></g></svg>