<svg xmlns="http://www.w3.org/2000/svg" xmlns:xlink="http://www.w3.org/1999/xlink" xmlns:lucid="lucid" width="887" height="522"><g transform="translate(-779 221)" lucid:page-tab-id="lLYQNlNRv-Ew"><path d="M500-500h1500V500H500z" fill="#fff"/><path d="M1100-200h200v80h-200z" stroke="#000" stroke-width="2" fill="#fff"/><use xlink:href="#a" transform="matrix(1,0,0,1,1112,-188) translate(41.333333333333336 35.27777777777778)"/><path d="M1200-2v-92.52" stroke="#3a414a" stroke-width="2" fill="none"/><path d="M1200.97-1h-1.94v-1.03h1.94z" stroke="#3a414a" stroke-width=".05" fill="#3a414a"/><path d="M1200-117.04l12.73 21.52h-25.46z" stroke="#3a414a" stroke-width="2" fill="#fff"/><path d="M1100 0h200v80h-200z" stroke="#000" stroke-width="2" fill="#fff"/><use xlink:href="#b" transform="matrix(1,0,0,1,1112,12.000000000000007) translate(1.3333333333333286 35.27777777777778)"/><path d="M1400-200h200v80h-200z" stroke="#000" stroke-width="2" fill="#fff"/><use xlink:href="#c" transform="matrix(1,0,0,1,1412,-188) translate(21.333333333333343 35.27777777777778)"/><path d="M1400 0h200v80h-200z" stroke="#000" stroke-width="2" fill="#fff"/><use xlink:href="#d" transform="matrix(1,0,0,1,1412,12.000000000000014) translate(-5.333333333333343 33.66666666666667)"/><path d="M1355 200h290v80h-290z" stroke="#000" stroke-width="2" fill="#fff"/><use xlink:href="#e" transform="matrix(1,0,0,1,1367,212) translate(-0.33333333333337123 33.66666666666667)"/><path d="M1500 198v-92.52" stroke="#000" stroke-width="2" fill="none"/><path d="M1500.97 199h-1.94v-1.03h1.94z" stroke="#000" stroke-width=".05"/><path d="M1500 82.96l12.73 21.52h-25.46zM800-200h200v80H800z" stroke="#000" stroke-width="2" fill="#fff"/><use xlink:href="#f" transform="matrix(1,0,0,1,812,-188) translate(34.66666666666667 35.27777777777778)"/><path d="M1031.75-160H1098" stroke="#000" stroke-width="2" fill="none"/><path d="M1002.4-160l14.86-14.85L1032.4-160l-15.14 14.85z" stroke="#000" stroke-width="2"/><path d="M1099-159.03h-1.03v-1.94h1.03z" stroke="#000" stroke-width=".05"/><path d="M1331.75 40H1398" stroke="#000" stroke-width="2" fill="none"/><path d="M1302.4 40l14.86-14.85L1332.4 40l-15.14 14.85z" stroke="#000" stroke-width="2" fill="#fff"/><path d="M1399 40.98h-1.03v-1.95h1.03z" stroke="#000" stroke-width=".05"/><path d="M1252.03-1.63l3.05-2.44m6.1-4.88l6.12-4.9m6.1-4.87l6.1-4.9m6.12-4.87l6.1-4.88m6.1-4.88l6.1-4.9m6.12-4.87l6.1-4.9m6.1-4.87l6.12-4.9m6.1-4.87l6.1-4.9m6.12-4.87l6.1-4.9m6.1-4.87L1365-92m6.1-4.88l6.1-4.9m6.12-4.87l6.1-4.9m6.1-4.87l3.06-2.44" stroke="#000" stroke-width="2" fill="none"/><path d="M1252.56-1h-2.87l1.74-1.4z" stroke="#000" stroke-width=".05"/><path d="M1391.38-100.07l7.1-18.7-19.82 2.8M1302-160h3.97m7.93 0h7.93m7.93 0h7.93m7.92 0h7.94m7.93 0h7.92m7.93 0h7.93m7.94 0h3.96" stroke="#000" stroke-width="2" fill="none"/><path d="M1302.03-159.03H1301v-1.94h1.03z" stroke="#000" stroke-width=".05"/><path d="M1379.82-149.82l17.22-10.18-17.22-10.18" stroke="#000" stroke-width="2" fill="none"/><defs><path fill="#3a414a" d="M543-563L476 0h-64L300-400 185 0h-63L57-563h41l61 517 112-392h62L442-46l62-517h39" id="g"/><path fill="#3a414a" d="M300-431c128 0 228 99 228 226C528-83 426 16 300 16 173 16 72-83 72-208c0-123 101-223 228-223zm0 41c-104 0-187 81-187 182 0 102 83 183 187 183 103 0 187-81 187-180 0-105-82-185-187-185" id="h"/><path fill="#3a414a" d="M441-427c35 0 92 33 100 62 1 19-23 28-37 13-22-25-44-34-66-34-45 0-80 23-190 124V0h-41v-417h41v102c93-84 142-112 193-112" id="i"/><path fill="#3a414a" d="M461 0v-89C414-19 354 16 279 16 160 16 63-85 63-208s97-223 216-223c75 0 133 33 182 104v-277h41V0h-41zM282-390c-99 0-178 81-178 182 0 102 79 183 179 183 98 0 178-81 178-181 0-104-78-184-179-184" id="j"/><path fill="#3a414a" d="M92-139c0-18 7-27 21-27 13 0 19 8 20 24 3 66 77 117 168 117 93 0 163-54 163-128 0-35-17-66-45-84-24-15-45-22-116-34-70-12-106-24-136-46-33-23-52-62-52-104 0-88 79-155 184-155 129 0 187 92 187 143 0 18-7 27-20 27s-20-8-21-24c-4-60-65-105-143-105-120 0-193 124-104 191 25 19 51 25 113 35 77 13 105 21 135 40 39 24 62 67 62 118 0 97-86 167-206 167C190 16 92-63 92-139" id="k"/><path fill="#3a414a" d="M520-199H104C118-94 198-25 306-25c62 0 136-21 175-54 15-13 35-6 35 13 0 35-120 82-211 82C170 16 63-87 63-217c0-121 100-214 228-214 126 0 231 85 229 232zm-416-41h374c-16-91-90-150-187-150s-169 58-187 150" id="l"/><path fill="#3a414a" d="M186-417h220c18 0 27 7 27 20 0 14-9 21-27 21H186v267C185 8 396-17 464-65c17-12 35-3 35 14 0 29-114 67-199 67-94 0-155-48-155-123v-269c-34-5-102 14-102-21 0-34 69-15 102-20v-119c0-18 7-27 21-27s20 8 20 27v119" id="m"/><g id="a"><use transform="matrix(0.022222222222222223,0,0,0.022222222222222223,0,0)" xlink:href="#g"/><use transform="matrix(0.022222222222222223,0,0,0.022222222222222223,13.333333333333334,0)" xlink:href="#h"/><use transform="matrix(0.022222222222222223,0,0,0.022222222222222223,26.666666666666668,0)" xlink:href="#i"/><use transform="matrix(0.022222222222222223,0,0,0.022222222222222223,40,0)" xlink:href="#j"/><use transform="matrix(0.022222222222222223,0,0,0.022222222222222223,53.333333333333336,0)" xlink:href="#k"/><use transform="matrix(0.022222222222222223,0,0,0.022222222222222223,66.66666666666667,0)" xlink:href="#l"/><use transform="matrix(0.022222222222222223,0,0,0.022222222222222223,80,0)" xlink:href="#m"/></g><path fill="#3a414a" d="M296-390c-34 0-77 11-152 32-23-1-25-34-2-41 56-16 120-32 157-32 93 0 161 52 161 123V0h-41v-67c-61 57-121 83-191 83-93 0-156-52-156-128 0-87 86-146 211-146 46 0 77 5 136 21v-71c0-49-50-82-123-82zm123 278v-90c-36-9-84-15-128-15-106 0-178 43-178 106 0 52 45 86 114 86 71 0 125-24 192-87" id="n"/><path fill="#3a414a" d="M279 0v-376H161c-18 0-27-7-27-21 0-13 9-20 27-20h159V0h-41zm39-624v104h-59v-104h59" id="o"/><path fill="#3a414a" d="M511-298c0 18-7 27-20 27s-19-7-21-24c-4-53-75-95-159-95-110 0-186 75-186 185 0 105 77 180 186 180 73 0 135-24 187-72 12-18 37-10 37 9 0 12-15 30-43 49-51 35-117 55-183 55C178 16 84-76 84-204c0-132 96-227 230-227 61 0 197 22 197 133" id="p"/><g id="b"><use transform="matrix(0.022222222222222223,0,0,0.022222222222222223,0,0)" xlink:href="#k"/><use transform="matrix(0.022222222222222223,0,0,0.022222222222222223,13.333333333333334,0)" xlink:href="#m"/><use transform="matrix(0.022222222222222223,0,0,0.022222222222222223,26.666666666666668,0)" xlink:href="#n"/><use transform="matrix(0.022222222222222223,0,0,0.022222222222222223,40,0)" xlink:href="#m"/><use transform="matrix(0.022222222222222223,0,0,0.022222222222222223,53.333333333333336,0)" xlink:href="#o"/><use transform="matrix(0.022222222222222223,0,0,0.022222222222222223,66.66666666666667,0)" xlink:href="#p"/><use transform="matrix(0.022222222222222223,0,0,0.022222222222222223,80,0)" xlink:href="#g"/><use transform="matrix(0.022222222222222223,0,0,0.022222222222222223,93.33333333333334,0)" xlink:href="#h"/><use transform="matrix(0.022222222222222223,0,0,0.022222222222222223,106.66666666666666,0)" xlink:href="#i"/><use transform="matrix(0.022222222222222223,0,0,0.022222222222222223,119.99999999999999,0)" xlink:href="#j"/><use transform="matrix(0.022222222222222223,0,0,0.022222222222222223,133.33333333333331,0)" xlink:href="#k"/><use transform="matrix(0.022222222222222223,0,0,0.022222222222222223,146.66666666666666,0)" xlink:href="#l"/><use transform="matrix(0.022222222222222223,0,0,0.022222222222222223,160,0)" xlink:href="#m"/></g><path fill="#3a414a" d="M291 0H104v-563h190c144 0 226 133 226 309C520-112 420 0 291 0zm188-318c-2-97-77-204-191-204H145v481h150c96 0 184-98 184-204v-73" id="q"/><path fill="#3a414a" d="M520-551c-10-1-115-12-138-12-66 0-111 35-111 85v61h189c18 0 27 7 27 20 0 14-9 21-27 21H271V0h-41v-376h-88c-18 0-27-7-27-21 0-13 9-20 27-20h88v-61c0-73 64-126 154-126 38 0 107 8 139 13 26 4 22 41-3 40" id="r"/><path fill="#3a414a" d="M480-417V0h-41v-66c-55 54-116 82-182 82-80 0-133-52-133-131v-302h41v302c0 50 40 90 91 90 67 0 128-30 183-90v-302h41" id="s"/><path fill="#3a414a" d="M279 0v-563H162c-18 0-27-7-27-21 0-13 9-20 27-20h158V0h-41" id="t"/><path fill="#3a414a" d="M528-417L232 186h-41L282 0 74-417h47L305-45l181-372h42" id="u"/><g id="c"><use transform="matrix(0.022222222222222223,0,0,0.022222222222222223,0,0)" xlink:href="#q"/><use transform="matrix(0.022222222222222223,0,0,0.022222222222222223,13.333333333333334,0)" xlink:href="#o"/><use transform="matrix(0.022222222222222223,0,0,0.022222222222222223,26.666666666666668,0)" xlink:href="#r"/><use transform="matrix(0.022222222222222223,0,0,0.022222222222222223,40,0)" xlink:href="#r"/><use transform="matrix(0.022222222222222223,0,0,0.022222222222222223,53.333333333333336,0)" xlink:href="#o"/><use transform="matrix(0.022222222222222223,0,0,0.022222222222222223,66.66666666666667,0)" xlink:href="#p"/><use transform="matrix(0.022222222222222223,0,0,0.022222222222222223,80,0)" xlink:href="#s"/><use transform="matrix(0.022222222222222223,0,0,0.022222222222222223,93.33333333333334,0)" xlink:href="#t"/><use transform="matrix(0.022222222222222223,0,0,0.022222222222222223,106.66666666666666,0)" xlink:href="#m"/><use transform="matrix(0.022222222222222223,0,0,0.022222222222222223,119.99999999999999,0)" xlink:href="#u"/></g><path fill="#3a414a" d="M125-93c51 46 98 68 148 68 81 0 146-62 146-140v-398h41v398c0 99-85 181-188 181-64 0-116-25-188-90" id="v"/><path fill="#3a414a" d="M532 0h-40v-319c0-38-31-71-66-71-36 0-66 24-104 82V0h-40v-316c0-39-31-74-65-74-35 0-67 25-105 82V0H72v-417h40v52c54-90 159-90 202 5 39-50 72-71 113-71 58 0 105 49 105 108V0" id="w"/><path fill="#3a414a" d="M144 0h-41v-604h41v276c50-71 106-103 180-103 122 0 217 97 217 221 0 125-97 226-217 226-73 0-133-34-180-104V0zm178-390c-99 0-178 81-178 182S223-25 322-25c97 0 178-82 178-180 0-104-78-185-178-185" id="x"/><path fill="#3a414a" d="M481 28c2 84-82 158-165 158H202c-18 0-27-7-27-21 0-13 9-20 27-20h116c68 0 122-55 122-123v-129c-45 66-99 97-171 97-113 0-206-95-206-211s93-210 206-210c73 0 126 30 171 97v-83h41V28zM272-390c-94 0-168 75-168 169 0 95 75 170 168 170s168-75 168-168c0-97-73-171-168-171" id="y"/><g id="d"><use transform="matrix(0.022222222222222223,0,0,0.022222222222222223,0,0)" xlink:href="#v"/><use transform="matrix(0.022222222222222223,0,0,0.022222222222222223,13.333333333333334,0)" xlink:href="#s"/><use transform="matrix(0.022222222222222223,0,0,0.022222222222222223,26.666666666666668,0)" xlink:href="#w"/><use transform="matrix(0.022222222222222223,0,0,0.022222222222222223,40,0)" xlink:href="#x"/><use transform="matrix(0.022222222222222223,0,0,0.022222222222222223,53.333333333333336,0)" xlink:href="#t"/><use transform="matrix(0.022222222222222223,0,0,0.022222222222222223,66.66666666666667,0)" xlink:href="#l"/><use transform="matrix(0.022222222222222223,0,0,0.022222222222222223,80,0)" xlink:href="#k"/><use transform="matrix(0.022222222222222223,0,0,0.022222222222222223,93.33333333333334,0)" xlink:href="#m"/><use transform="matrix(0.022222222222222223,0,0,0.022222222222222223,106.66666666666666,0)" xlink:href="#i"/><use transform="matrix(0.022222222222222223,0,0,0.022222222222222223,119.99999999999999,0)" xlink:href="#n"/><use transform="matrix(0.022222222222222223,0,0,0.022222222222222223,133.33333333333331,0)" xlink:href="#m"/><use transform="matrix(0.022222222222222223,0,0,0.022222222222222223,146.66666666666666,0)" xlink:href="#l"/><use transform="matrix(0.022222222222222223,0,0,0.022222222222222223,160,0)" xlink:href="#y"/><use transform="matrix(0.022222222222222223,0,0,0.022222222222222223,173.33333333333334,0)" xlink:href="#u"/></g><path fill="#3a414a" d="M103 186v-603h41v82c53-69 103-96 179-96 124 0 218 91 218 210S446-10 323-10c-77 0-133-30-179-96v292h-41zm219-576c-99 0-178 75-178 169 0 95 79 170 178 170 98 0 178-75 178-168 0-97-77-171-178-171" id="z"/><g id="e"><use transform="matrix(0.022222222222222223,0,0,0.022222222222222223,0,0)" xlink:href="#k"/><use transform="matrix(0.022222222222222223,0,0,0.022222222222222223,13.333333333333334,0)" xlink:href="#o"/><use transform="matrix(0.022222222222222223,0,0,0.022222222222222223,26.666666666666668,0)" xlink:href="#w"/><use transform="matrix(0.022222222222222223,0,0,0.022222222222222223,40,0)" xlink:href="#z"/><use transform="matrix(0.022222222222222223,0,0,0.022222222222222223,53.333333333333336,0)" xlink:href="#t"/><use transform="matrix(0.022222222222222223,0,0,0.022222222222222223,66.66666666666667,0)" xlink:href="#l"/><use transform="matrix(0.022222222222222223,0,0,0.022222222222222223,80,0)" xlink:href="#v"/><use transform="matrix(0.022222222222222223,0,0,0.022222222222222223,93.33333333333334,0)" xlink:href="#s"/><use transform="matrix(0.022222222222222223,0,0,0.022222222222222223,106.66666666666666,0)" xlink:href="#w"/><use transform="matrix(0.022222222222222223,0,0,0.022222222222222223,119.99999999999999,0)" xlink:href="#x"/><use transform="matrix(0.022222222222222223,0,0,0.022222222222222223,133.33333333333331,0)" xlink:href="#t"/><use transform="matrix(0.022222222222222223,0,0,0.022222222222222223,146.66666666666666,0)" xlink:href="#l"/><use transform="matrix(0.022222222222222223,0,0,0.022222222222222223,160,0)" xlink:href="#k"/><use transform="matrix(0.022222222222222223,0,0,0.022222222222222223,173.33333333333334,0)" xlink:href="#m"/><use transform="matrix(0.022222222222222223,0,0,0.022222222222222223,186.66666666666669,0)" xlink:href="#i"/><use transform="matrix(0.022222222222222223,0,0,0.022222222222222223,200.00000000000006,0)" xlink:href="#n"/><use transform="matrix(0.022222222222222223,0,0,0.022222222222222223,213.33333333333337,0)" xlink:href="#m"/><use transform="matrix(0.022222222222222223,0,0,0.022222222222222223,226.6666666666667,0)" xlink:href="#l"/><use transform="matrix(0.022222222222222223,0,0,0.022222222222222223,240.00000000000006,0)" xlink:href="#y"/><use transform="matrix(0.022222222222222223,0,0,0.022222222222222223,253.33333333333337,0)" xlink:href="#u"/></g><path fill="#3a414a" d="M124 0v-563h204c97 0 171 63 171 145 0 51-26 88-85 120 84 30 127 78 127 145C541-69 467 0 376 0H124zm41-313h147c85 0 146-44 146-106 0-58-56-103-129-103H165v209zm335 160c0-79-80-119-186-119H165v231h208c71 0 127-50 127-112" id="A"/><path fill="#3a414a" d="M319-390c-84 8-101 30-152 96V0h-41v-417h41v69c58-64 94-83 156-83 89 0 157 59 157 136V0h-41v-288c-1-57-52-108-120-102" id="B"/><path fill="#3a414a" d="M144 0v-604h41v375l222-188h61L262-245 510 0h-58L231-219l-46 39V0h-41" id="C"/><g id="f"><use transform="matrix(0.022222222222222223,0,0,0.022222222222222223,0,0)" xlink:href="#g"/><use transform="matrix(0.022222222222222223,0,0,0.022222222222222223,13.333333333333334,0)" xlink:href="#h"/><use transform="matrix(0.022222222222222223,0,0,0.022222222222222223,26.666666666666668,0)" xlink:href="#i"/><use transform="matrix(0.022222222222222223,0,0,0.022222222222222223,40,0)" xlink:href="#j"/><use transform="matrix(0.022222222222222223,0,0,0.022222222222222223,53.333333333333336,0)" xlink:href="#A"/><use transform="matrix(0.022222222222222223,0,0,0.022222222222222223,66.66666666666667,0)" xlink:href="#n"/><use transform="matrix(0.022222222222222223,0,0,0.022222222222222223,80,0)" xlink:href="#B"/><use transform="matrix(0.022222222222222223,0,0,0.022222222222222223,93.33333333333334,0)" xlink:href="#C"/></g></defs></g></svg>