<svg xmlns="http://www.w3.org/2000/svg" xmlns:xlink="http://www.w3.org/1999/xlink" xmlns:lucid="lucid" width="1122" height="494"><g transform="translate(-1039 221)" lucid:page-tab-id="lLYQNlNRv-Ew"><path d="M1000-500h1500V500H1000z" fill="#fff"/><path d="M1467.4-160h265.2" stroke="#000" stroke-width="2" fill="none"/><path d="M1438.07-160l14.85-14.85 15.15 14.85-15.15 14.85zM1761.93-160l-14.85 14.85-15.15-14.85 15.15-14.85z" stroke="#000" stroke-width="2" fill="#fff"/><use xlink:href="#a" transform="matrix(1,0,0,1,1713.001706611125,-180.51909722222223) translate(0 12.621527777777779)"/><use xlink:href="#a" transform="matrix(1,0,0,1,1476.1052179733872,-180.51909722222223) translate(0 12.621527777777779)"/><path d="M1318.26-31v-3.97m0-7.94v-7.95m0-7.94v-7.93m0-7.94v-7.94m0-7.95v-3.97" stroke="#000" stroke-width="2" fill="none"/><path d="M1319.24-30h-1.95v-1.03h1.94z" stroke="#000" stroke-width=".05"/><path d="M1318.26-117.04L1331-95.52h-25.46z" stroke="#000" stroke-width="2" fill="#fff"/><path d="M1881.74-31v-3.97m0-7.94v-7.95m0-7.94v-7.93m0-7.94v-7.94m0-7.95v-3.97" stroke="#000" stroke-width="2" fill="none"/><path d="M1882.7-30h-1.94v-1.03h1.95z" stroke="#000" stroke-width=".05"/><path d="M1881.74-117.04l12.72 21.52H1869z" stroke="#000" stroke-width="2" fill="#fff"/><path d="M1211.8 140.23l57.12-69.33" stroke="#000" stroke-width="2" fill="none"/><path d="M1212.57 140.83l-.14.17h-2.53l1.17-1.4z" stroke="#000" stroke-width=".05"/><path d="M1283.24 53.52l-3.86 24.7-19.65-16.2z" stroke="#000" stroke-width="2" fill="#fff"/><path d="M1424.72 140.23L1367.6 70.9" stroke="#000" stroke-width="2" fill="none"/><path d="M1426.62 141h-2.53l-.15-.17 1.5-1.24z" stroke="#000" stroke-width=".05"/><path d="M1353.3 53.52l23.5 8.5-19.65 16.2z" stroke="#000" stroke-width="2" fill="#fff"/><path d="M1988.2 140.23l-57.12-69.33" stroke="#000" stroke-width="2" fill="none"/><path d="M1990.1 141h-2.53l-.14-.17 1.5-1.24z" stroke="#000" stroke-width=".05"/><path d="M1916.76 53.52l23.5 8.5-19.64 16.2z" stroke="#000" stroke-width="2" fill="#fff"/><path d="M1775.28 140.23l57.12-69.33" stroke="#000" stroke-width="2" fill="none"/><path d="M1776.05 140.83l-.14.17h-2.52l1.16-1.4z" stroke="#000" stroke-width=".05"/><path d="M1846.7 53.52l-3.85 24.7-19.64-16.2z" stroke="#000" stroke-width="2" fill="#fff"/><path d="M1200.87-200h234.78v80h-234.78z" stroke="#000" stroke-width="2" fill="#fff7a1"/><use xlink:href="#b" transform="matrix(1,0,0,1,1212.8695652173915,-188) translate(78.83333333333333 35.27777777777778)"/><path d="M1764.35-200h234.78v80h-234.78z" stroke="#000" stroke-width="2" fill="#fff7a1"/><use xlink:href="#c" transform="matrix(1,0,0,1,1776.3478260869565,-188) translate(32.16666666666667 35.27777777777778)"/><path d="M1200.87-29h234.78v80h-234.78z" stroke="#000" stroke-width="2" fill="#fff7a1"/><use xlink:href="#d" transform="matrix(1,0,0,1,1212.8695652173915,-16.999999999999993) translate(25.5 35.27777777777778)"/><path d="M1764.35-29h234.78v80h-234.78z" stroke="#000" stroke-width="2" fill="#fff7a1"/><use xlink:href="#e" transform="matrix(1,0,0,1,1776.3478260869565,-16.999999999999993) translate(5.499999999999986 35.27777777777778)"/><path d="M1060 142h234.78v80H1060z" stroke="#000" stroke-width="2" fill="#fff7a1"/><use xlink:href="#f" transform="matrix(1,0,0,1,1072,154) translate(38.83333333333334 35.27777777777778)"/><path d="M1341.74 142h234.78v80h-234.78z" stroke="#000" stroke-width="2" fill="#fff7a1"/><use xlink:href="#g" transform="matrix(1,0,0,1,1353.7391304347827,154) translate(38.83333333333334 35.27777777777778)"/><path d="M1905.22 142H2140v80h-234.78z" stroke="#000" stroke-width="2" fill="#fff7a1"/><use xlink:href="#h" transform="matrix(1,0,0,1,1917.217391304348,154) translate(18.83333333333333 35.27777777777778)"/><path d="M1623.48 142h234.78v80h-234.78z" stroke="#000" stroke-width="2" fill="#fff7a1"/><use xlink:href="#i" transform="matrix(1,0,0,1,1635.4782608695655,154) translate(18.83333333333333 35.27777777777778)"/><path d="M1579.34 182h1.76m7.02 0h3.5m7.03 0h3.5m7.04 0h3.5m7.02 0h1.76M1596.7 171.82L1579.5 182l17.2 10.18" stroke="#3a414a" stroke-width="2" fill="none"/><path d="M1622.48 182.97h-1.03v-1.94h1.03z" stroke="#3a414a" stroke-width=".05" fill="#3a414a"/><path d="M1177.4 224.82V227m0 8.7v4.36m0 8.7v4.36m0 8.7V264l.06.94.15.6m4.24 4.24l.6.15.95.07h2m8.05 0h4.03m8.05 0h4.03m8.05 0h4.03m8.05 0h4.03m8.06 0h4.02m8.05 0h4.03m8.05 0h4.03m8.05 0h4.03m8.06 0h4.02m8.06 0h4.02m8.05 0h4.04m8.05 0h4m8.06 0h4.03m8.04 0h4.02m8.05 0h4.04m8.05 0h4m8.06 0h4.03m8.04 0h4.03m8.05 0h4.02m8.05 0h4.02m8.05 0h4.02m8.04 0h4.03m8.05 0h4.02m8.05 0h4.02m8.05 0h4.02m8.05 0h4.02m8.05 0h4.02m8.06 0h4.02m8.05 0h4.03m8.05 0h4.02m8.05 0h4.03m8.05 0h4.02m8.05 0h4.03m8.05 0h4.02m8.06 0h4.02m8.05 0h4.03m8.05 0h4.02m8.05 0h4.03m8.05 0h4.02m8.05 0h4.03m8.05 0h4.02m8.06 0h4.02m8.05 0h4.02m8.06 0h4.03m8.05 0h4.03m8.06 0h4.02m8.05 0h4.03m8.05 0h4.03m8.05 0h4.03m8.06 0h4.02m8.05 0h4.03m8.05 0h4.04m8.05 0h4m8.06 0h4.03m8.04 0h4.02m8.05 0h4.04m8.05 0h4m8.06 0h4.03m8.04 0h4.03m8.05 0h4.02m8.05 0h4.02m8.05 0h4.02m8.04 0h4.03m8.05 0h4.02m8.05 0h4.02m8.05 0h4.02m8.04 0h4.03m8.05 0h4.03m8.05 0h2l.95-.07.6-.15m4.24-4.23l.13-.6.08-.95v-2.22m0-8.9v-4.44m0-8.88v-4.45m0-8.88V224M1187.57 242.18l-10.18-17.22-10.2 17.22" stroke="#3a414a" stroke-width="2" fill="none"/><path d="M2023.58 224.03h-1.95V223h1.95z" stroke="#3a414a" stroke-width=".05" fill="#3a414a"/><defs><path fill="#333" d="M670-922c38 64 150 222 150 283 0 35-19 53-57 53-27 0-49-15-66-45L560-865 425-635c-19 33-43 49-70 49-64 0-65-70-40-112l131-224H178c-51 0-76-22-76-65 0-42 25-63 76-63h268c-98-163-147-256-147-281 0-70 88-80 119-28l142 242 137-233c17-29 38-43 64-43 39 0 59 20 59 61 0 20-50 114-150 282h264c55 0 83 20 83 61 0 45-28 67-83 67H670" id="j"/><use transform="matrix(0.008680555555555556,0,0,0.008680555555555556,0,0)" xlink:href="#j" id="a"/><path fill="#3a414a" d="M63-325c0-128 108-251 242-251 66 0 188 31 214 152 0 18-7 27-21 27-12 0-19-8-20-24-4-61-84-114-173-114-111 0-201 97-201 216v71c0 120 100 223 218 223 69 0 122-24 174-90 13-16 38-10 38 9 0 10-12 27-38 51-49 46-110 71-174 71C186 16 63-107 63-242v-83" id="k"/><path fill="#3a414a" d="M520-199H104C118-94 198-25 306-25c62 0 136-21 175-54 15-13 35-6 35 13 0 35-120 82-211 82C170 16 63-87 63-217c0-121 100-214 228-214 126 0 231 85 229 232zm-416-41h374c-16-91-90-150-187-150s-169 58-187 150" id="l"/><path fill="#3a414a" d="M279 0v-563H162c-18 0-27-7-27-21 0-13 9-20 27-20h158V0h-41" id="m"/><g id="b"><use transform="matrix(0.022222222222222223,0,0,0.022222222222222223,0,0)" xlink:href="#k"/><use transform="matrix(0.022222222222222223,0,0,0.022222222222222223,13.333333333333334,0)" xlink:href="#l"/><use transform="matrix(0.022222222222222223,0,0,0.022222222222222223,26.666666666666668,0)" xlink:href="#m"/><use transform="matrix(0.022222222222222223,0,0,0.022222222222222223,40,0)" xlink:href="#m"/></g><path fill="#3a414a" d="M480-417V0h-41v-66c-55 54-116 82-182 82-80 0-133-52-133-131v-302h41v302c0 50 40 90 91 90 67 0 128-30 183-90v-302h41" id="n"/><path fill="#3a414a" d="M301 16c-106 0-198-49-198-128 0-15 7-25 21-25s20 12 20 29c0 46 69 83 154 83 126 0 206-89 110-155-40-27-213-28-238-59-103-76-18-192 125-192 92 0 178 48 178 114 0 14-7 23-20 24-12 0-19-7-21-23-5-45-57-74-133-74-100 0-175 68-98 120 22 14 28 16 116 25 100 10 180 41 180 129 0 76-83 132-196 132" id="o"/><path fill="#3a414a" d="M186-417h220c18 0 27 7 27 20 0 14-9 21-27 21H186v267C185 8 396-17 464-65c17-12 35-3 35 14 0 29-114 67-199 67-94 0-155-48-155-123v-269c-34-5-102 14-102-21 0-34 69-15 102-20v-119c0-18 7-27 21-27s20 8 20 27v119" id="p"/><path fill="#3a414a" d="M441-427c35 0 92 33 100 62 1 19-23 28-37 13-22-25-44-34-66-34-45 0-80 23-190 124V0h-41v-417h41v102c93-84 142-112 193-112" id="q"/><g id="c"><use transform="matrix(0.022222222222222223,0,0,0.022222222222222223,0,0)" xlink:href="#k"/><use transform="matrix(0.022222222222222223,0,0,0.022222222222222223,13.333333333333334,0)" xlink:href="#l"/><use transform="matrix(0.022222222222222223,0,0,0.022222222222222223,26.666666666666668,0)" xlink:href="#m"/><use transform="matrix(0.022222222222222223,0,0,0.022222222222222223,40,0)" xlink:href="#m"/><use transform="matrix(0.022222222222222223,0,0,0.022222222222222223,53.333333333333336,0)" xlink:href="#k"/><use transform="matrix(0.022222222222222223,0,0,0.022222222222222223,66.66666666666667,0)" xlink:href="#m"/><use transform="matrix(0.022222222222222223,0,0,0.022222222222222223,80,0)" xlink:href="#n"/><use transform="matrix(0.022222222222222223,0,0,0.022222222222222223,93.33333333333334,0)" xlink:href="#o"/><use transform="matrix(0.022222222222222223,0,0,0.022222222222222223,106.66666666666666,0)" xlink:href="#p"/><use transform="matrix(0.022222222222222223,0,0,0.022222222222222223,119.99999999999999,0)" xlink:href="#l"/><use transform="matrix(0.022222222222222223,0,0,0.022222222222222223,133.33333333333331,0)" xlink:href="#q"/></g><path fill="#3a414a" d="M52 0l210-563h68L542 0h-43l-71-188H162L93 0H52zm361-229L301-522h-15L178-229h235" id="r"/><path fill="#3a414a" d="M144 0h-41v-604h41v276c50-71 106-103 180-103 122 0 217 97 217 221 0 125-97 226-217 226-73 0-133-34-180-104V0zm178-390c-99 0-178 81-178 182S223-25 322-25c97 0 178-82 178-180 0-104-78-185-178-185" id="s"/><path fill="#3a414a" d="M296-390c-34 0-77 11-152 32-23-1-25-34-2-41 56-16 120-32 157-32 93 0 161 52 161 123V0h-41v-67c-61 57-121 83-191 83-93 0-156-52-156-128 0-87 86-146 211-146 46 0 77 5 136 21v-71c0-49-50-82-123-82zm123 278v-90c-36-9-84-15-128-15-106 0-178 43-178 106 0 52 45 86 114 86 71 0 125-24 192-87" id="t"/><path fill="#3a414a" d="M511-298c0 18-7 27-20 27s-19-7-21-24c-4-53-75-95-159-95-110 0-186 75-186 185 0 105 77 180 186 180 73 0 135-24 187-72 12-18 37-10 37 9 0 12-15 30-43 49-51 35-117 55-183 55C178 16 84-76 84-204c0-132 96-227 230-227 61 0 197 22 197 133" id="u"/><g id="d"><use transform="matrix(0.022222222222222223,0,0,0.022222222222222223,0,0)" xlink:href="#r"/><use transform="matrix(0.022222222222222223,0,0,0.022222222222222223,13.333333333333334,0)" xlink:href="#s"/><use transform="matrix(0.022222222222222223,0,0,0.022222222222222223,26.666666666666668,0)" xlink:href="#o"/><use transform="matrix(0.022222222222222223,0,0,0.022222222222222223,40,0)" xlink:href="#p"/><use transform="matrix(0.022222222222222223,0,0,0.022222222222222223,53.333333333333336,0)" xlink:href="#q"/><use transform="matrix(0.022222222222222223,0,0,0.022222222222222223,66.66666666666667,0)" xlink:href="#t"/><use transform="matrix(0.022222222222222223,0,0,0.022222222222222223,80,0)" xlink:href="#u"/><use transform="matrix(0.022222222222222223,0,0,0.022222222222222223,93.33333333333334,0)" xlink:href="#p"/><use transform="matrix(0.022222222222222223,0,0,0.022222222222222223,106.66666666666666,0)" xlink:href="#k"/><use transform="matrix(0.022222222222222223,0,0,0.022222222222222223,119.99999999999999,0)" xlink:href="#l"/><use transform="matrix(0.022222222222222223,0,0,0.022222222222222223,133.33333333333331,0)" xlink:href="#m"/><use transform="matrix(0.022222222222222223,0,0,0.022222222222222223,146.66666666666666,0)" xlink:href="#m"/></g><g id="e"><use transform="matrix(0.022222222222222223,0,0,0.022222222222222223,0,0)" xlink:href="#r"/><use transform="matrix(0.022222222222222223,0,0,0.022222222222222223,13.333333333333334,0)" xlink:href="#s"/><use transform="matrix(0.022222222222222223,0,0,0.022222222222222223,26.666666666666668,0)" xlink:href="#o"/><use transform="matrix(0.022222222222222223,0,0,0.022222222222222223,40,0)" xlink:href="#p"/><use transform="matrix(0.022222222222222223,0,0,0.022222222222222223,53.333333333333336,0)" xlink:href="#q"/><use transform="matrix(0.022222222222222223,0,0,0.022222222222222223,66.66666666666667,0)" xlink:href="#t"/><use transform="matrix(0.022222222222222223,0,0,0.022222222222222223,80,0)" xlink:href="#u"/><use transform="matrix(0.022222222222222223,0,0,0.022222222222222223,93.33333333333334,0)" xlink:href="#p"/><use transform="matrix(0.022222222222222223,0,0,0.022222222222222223,106.66666666666666,0)" xlink:href="#k"/><use transform="matrix(0.022222222222222223,0,0,0.022222222222222223,119.99999999999999,0)" xlink:href="#m"/><use transform="matrix(0.022222222222222223,0,0,0.022222222222222223,133.33333333333331,0)" xlink:href="#n"/><use transform="matrix(0.022222222222222223,0,0,0.022222222222222223,146.66666666666666,0)" xlink:href="#o"/><use transform="matrix(0.022222222222222223,0,0,0.022222222222222223,160,0)" xlink:href="#p"/><use transform="matrix(0.022222222222222223,0,0,0.022222222222222223,173.33333333333334,0)" xlink:href="#l"/><use transform="matrix(0.022222222222222223,0,0,0.022222222222222223,186.66666666666669,0)" xlink:href="#q"/></g><path fill="#3a414a" d="M541-41V0H186v-563h41v522h314" id="v"/><g id="f"><use transform="matrix(0.022222222222222223,0,0,0.022222222222222223,0,0)" xlink:href="#v"/><use transform="matrix(0.022222222222222223,0,0,0.022222222222222223,13.333333333333334,0)" xlink:href="#l"/><use transform="matrix(0.022222222222222223,0,0,0.022222222222222223,26.666666666666668,0)" xlink:href="#p"/><use transform="matrix(0.022222222222222223,0,0,0.022222222222222223,40,0)" xlink:href="#p"/><use transform="matrix(0.022222222222222223,0,0,0.022222222222222223,53.333333333333336,0)" xlink:href="#l"/><use transform="matrix(0.022222222222222223,0,0,0.022222222222222223,66.66666666666667,0)" xlink:href="#q"/><use transform="matrix(0.022222222222222223,0,0,0.022222222222222223,80,0)" xlink:href="#k"/><use transform="matrix(0.022222222222222223,0,0,0.022222222222222223,93.33333333333334,0)" xlink:href="#l"/><use transform="matrix(0.022222222222222223,0,0,0.022222222222222223,106.66666666666666,0)" xlink:href="#m"/><use transform="matrix(0.022222222222222223,0,0,0.022222222222222223,119.99999999999999,0)" xlink:href="#m"/></g><path fill="#3a414a" d="M92-139c0-18 7-27 21-27 13 0 19 8 20 24 3 66 77 117 168 117 93 0 163-54 163-128 0-35-17-66-45-84-24-15-45-22-116-34-70-12-106-24-136-46-33-23-52-62-52-104 0-88 79-155 184-155 129 0 187 92 187 143 0 18-7 27-20 27s-20-8-21-24c-4-60-65-105-143-105-120 0-193 124-104 191 25 19 51 25 113 35 77 13 105 21 135 40 39 24 62 67 62 118 0 97-86 167-206 167C190 16 92-63 92-139" id="w"/><path fill="#3a414a" d="M528-417L232 186h-41L282 0 74-417h47L305-45l181-372h42" id="x"/><path fill="#3a414a" d="M532 0h-40v-319c0-38-31-71-66-71-36 0-66 24-104 82V0h-40v-316c0-39-31-74-65-74-35 0-67 25-105 82V0H72v-417h40v52c54-90 159-90 202 5 39-50 72-71 113-71 58 0 105 49 105 108V0" id="y"/><path fill="#3a414a" d="M300-431c128 0 228 99 228 226C528-83 426 16 300 16 173 16 72-83 72-208c0-123 101-223 228-223zm0 41c-104 0-187 81-187 182 0 102 83 183 187 183 103 0 187-81 187-180 0-105-82-185-187-185" id="z"/><g id="g"><use transform="matrix(0.022222222222222223,0,0,0.022222222222222223,0,0)" xlink:href="#w"/><use transform="matrix(0.022222222222222223,0,0,0.022222222222222223,13.333333333333334,0)" xlink:href="#x"/><use transform="matrix(0.022222222222222223,0,0,0.022222222222222223,26.666666666666668,0)" xlink:href="#y"/><use transform="matrix(0.022222222222222223,0,0,0.022222222222222223,40,0)" xlink:href="#s"/><use transform="matrix(0.022222222222222223,0,0,0.022222222222222223,53.333333333333336,0)" xlink:href="#z"/><use transform="matrix(0.022222222222222223,0,0,0.022222222222222223,66.66666666666667,0)" xlink:href="#m"/><use transform="matrix(0.022222222222222223,0,0,0.022222222222222223,80,0)" xlink:href="#k"/><use transform="matrix(0.022222222222222223,0,0,0.022222222222222223,93.33333333333334,0)" xlink:href="#l"/><use transform="matrix(0.022222222222222223,0,0,0.022222222222222223,106.66666666666666,0)" xlink:href="#m"/><use transform="matrix(0.022222222222222223,0,0,0.022222222222222223,119.99999999999999,0)" xlink:href="#m"/></g><g id="h"><use transform="matrix(0.022222222222222223,0,0,0.022222222222222223,0,0)" xlink:href="#v"/><use transform="matrix(0.022222222222222223,0,0,0.022222222222222223,13.333333333333334,0)" xlink:href="#l"/><use transform="matrix(0.022222222222222223,0,0,0.022222222222222223,26.666666666666668,0)" xlink:href="#p"/><use transform="matrix(0.022222222222222223,0,0,0.022222222222222223,40,0)" xlink:href="#p"/><use transform="matrix(0.022222222222222223,0,0,0.022222222222222223,53.333333333333336,0)" xlink:href="#l"/><use transform="matrix(0.022222222222222223,0,0,0.022222222222222223,66.66666666666667,0)" xlink:href="#q"/><use transform="matrix(0.022222222222222223,0,0,0.022222222222222223,80,0)" xlink:href="#k"/><use transform="matrix(0.022222222222222223,0,0,0.022222222222222223,93.33333333333334,0)" xlink:href="#m"/><use transform="matrix(0.022222222222222223,0,0,0.022222222222222223,106.66666666666666,0)" xlink:href="#n"/><use transform="matrix(0.022222222222222223,0,0,0.022222222222222223,119.99999999999999,0)" xlink:href="#o"/><use transform="matrix(0.022222222222222223,0,0,0.022222222222222223,133.33333333333331,0)" xlink:href="#p"/><use transform="matrix(0.022222222222222223,0,0,0.022222222222222223,146.66666666666666,0)" xlink:href="#l"/><use transform="matrix(0.022222222222222223,0,0,0.022222222222222223,160,0)" xlink:href="#q"/></g><g id="i"><use transform="matrix(0.022222222222222223,0,0,0.022222222222222223,0,0)" xlink:href="#w"/><use transform="matrix(0.022222222222222223,0,0,0.022222222222222223,13.333333333333334,0)" xlink:href="#x"/><use transform="matrix(0.022222222222222223,0,0,0.022222222222222223,26.666666666666668,0)" xlink:href="#y"/><use transform="matrix(0.022222222222222223,0,0,0.022222222222222223,40,0)" xlink:href="#s"/><use transform="matrix(0.022222222222222223,0,0,0.022222222222222223,53.333333333333336,0)" xlink:href="#z"/><use transform="matrix(0.022222222222222223,0,0,0.022222222222222223,66.66666666666667,0)" xlink:href="#m"/><use transform="matrix(0.022222222222222223,0,0,0.022222222222222223,80,0)" xlink:href="#k"/><use transform="matrix(0.022222222222222223,0,0,0.022222222222222223,93.33333333333334,0)" xlink:href="#m"/><use transform="matrix(0.022222222222222223,0,0,0.022222222222222223,106.66666666666666,0)" xlink:href="#n"/><use transform="matrix(0.022222222222222223,0,0,0.022222222222222223,119.99999999999999,0)" xlink:href="#o"/><use transform="matrix(0.022222222222222223,0,0,0.022222222222222223,133.33333333333331,0)" xlink:href="#p"/><use transform="matrix(0.022222222222222223,0,0,0.022222222222222223,146.66666666666666,0)" xlink:href="#l"/><use transform="matrix(0.022222222222222223,0,0,0.022222222222222223,160,0)" xlink:href="#q"/></g></defs></g></svg>